# xmcd CD database file
#
# Track frame offsets:
#	150
#	15475
#	25660
#	38839
#	49090
#	65330
#	76242
#	88495
#	100704
#	117195
#	126985
#	142655
#
# Disc length: 2023 seconds
#
# Revision: 0
# Processed by: cddbd v1.5.1PL0 Copyright (c) Steve Scherf et al.
# Submitted via: CDex 1.51
#
DISCID=9007e50c
DTITLE=Boots Randolph - 36 All Time Favorites  Disc 1
DYEAR=1900
DGENRE=Jazz
TTITLE0=Bridge Over Troubled Water
TTITLE1=It's Not Unusual
TTITLE2=Wichita Lineman
TTITLE3=Elusive Butterfly
TTITLE4=People
TTITLE5=King Of The Road
TTITLE6=Big Daddy
TTITLE7=By The Time I Get To Phoenix
TTITLE8=Misty
TTITLE9=So Rare
TTITLE10=The Nearness Of You
TTITLE11=Yakety Sax
EXTD=
EXTT0=
EXTT1=
EXTT2=
EXTT3=
EXTT4=
EXTT5=
EXTT6=
EXTT7=
EXTT8=
EXTT9=
EXTT10=
EXTT11=
PLAYORDER=
